<svg width="20" height="20" viewBox="0 0 20 20" fill="none" xmlns="http://www.w3.org/2000/svg">
<path d="M13.9843 12.8186L11.651 10.4853L13.9843 8.15197C14.139 7.99726 14.226 7.78743 14.226 7.56864C14.226 7.34985 14.139 7.14003 13.9843 6.98532C13.8296 6.83061 13.6198 6.74369 13.401 6.74369C13.1822 6.7437 12.9724 6.83061 12.8177 6.98532L10.4844 9.31863L8.15107 6.98532C7.99636 6.83061 7.78653 6.74369 7.56774 6.74369C7.34895 6.74369 7.13912 6.83061 6.98441 6.98532C6.8297 7.14002 6.74279 7.34985 6.74279 7.56864C6.74279 7.78743 6.8297 7.99726 6.98441 8.15197L9.31772 10.4853L6.98441 12.8186C6.8297 12.9733 6.74279 13.1831 6.74279 13.4019C6.74279 13.6207 6.8297 13.8305 6.98441 13.9852C7.13912 14.14 7.34895 14.2269 7.56774 14.2269C7.78653 14.2269 7.99636 14.14 8.15107 13.9852L10.4844 11.6519L12.8177 13.9852C12.9724 14.14 13.1822 14.2269 13.401 14.2269C13.6198 14.2269 13.8296 14.14 13.9843 13.9852C14.139 13.8305 14.226 13.6207 14.226 13.4019C14.226 13.1831 14.139 12.9733 13.9843 12.8186Z" fill="#0F0F0F"/>
</svg>
