<svg width="60" height="60" viewBox="0 0 60 60" fill="none" xmlns="http://www.w3.org/2000/svg">
<path opacity="0.5" fill-rule="evenodd" clip-rule="evenodd" d="M5.1067 0.197677C4.86402 0.303225 4.62405 0.497962 4.57327 0.630537C4.52234 0.76297 4.48081 1.0469 4.48081 1.26155C4.48081 1.48573 4.62106 1.7836 4.80997 1.96127C5.12064 2.25302 5.27227 2.27051 7.48793 2.27051C9.75906 2.27051 9.84682 2.2597 10.146 1.94135C10.3161 1.76027 10.4552 1.43594 10.4552 1.22072C10.4552 1.0055 10.3925 0.712187 10.316 0.569086C10.2394 0.425985 9.97385 0.238217 9.72577 0.151731C9.47769 0.0652438 8.43615 -0.00289261 7.41125 9.45918e-05C6.171 0.00379304 5.40016 0.0699383 5.1067 0.197677ZM12.7881 0.197677C12.5454 0.303225 12.3054 0.497962 12.2547 0.630537C12.2037 0.76297 12.1622 1.0469 12.1622 1.26155C12.1622 1.48573 12.3024 1.7836 12.4914 1.96127C12.802 2.25302 12.9537 2.27051 15.1693 2.27051C17.4404 2.27051 17.5282 2.2597 17.8274 1.94135C17.9975 1.76027 18.1366 1.43594 18.1366 1.22072C18.1366 1.0055 18.0739 0.712187 17.9973 0.569086C17.9208 0.425985 17.6552 0.238217 17.4072 0.151731C17.1591 0.0652438 16.1175 -0.00289261 15.0926 9.45918e-05C13.8524 0.00379304 13.0815 0.0699383 12.7881 0.197677ZM20.5678 0.143195C20.3793 0.222143 20.1412 0.396966 20.0389 0.531817C19.9365 0.666668 19.8505 0.973781 19.8481 1.21446C19.8453 1.49213 19.9639 1.76496 20.1727 1.96127C20.4827 2.2523 20.6366 2.27051 22.7928 2.27051C24.0527 2.27051 25.1871 2.23068 25.3137 2.18218C25.4405 2.13353 25.639 1.91006 25.7551 1.68545C25.8746 1.45444 25.9285 1.12698 25.8793 0.930822C25.8315 0.740352 25.6635 0.467805 25.506 0.325131C25.2594 0.101517 24.9215 0.0611189 23.0651 0.0326694C21.8552 0.0141771 20.7601 0.0626832 20.5678 0.143195ZM28.287 0.130536C28.1193 0.200949 27.8793 0.405501 27.7535 0.585018C27.6278 0.764534 27.525 1.05998 27.525 1.24178C27.525 1.42357 27.6821 1.72926 27.8742 1.92129C28.2164 2.26368 28.2686 2.27051 30.5611 2.27051C32.5785 2.27051 32.9399 2.23637 33.1987 2.02158C33.3635 1.88474 33.5366 1.57506 33.5831 1.33353C33.6489 0.9927 33.5881 0.801661 33.3117 0.480038L32.9557 0.0656706L30.7738 0.0340916C29.5738 0.0167374 28.4547 0.0601231 28.287 0.130536ZM35.5234 1.22769C35.424 1.26781 35.2446 1.49 35.1248 1.72144C34.9965 1.96966 34.947 2.27094 35.0042 2.45543C35.0576 2.62755 35.3445 3.03424 35.6418 3.35899C35.9391 3.68389 36.2482 4.19598 36.3287 4.49698C36.4092 4.79811 36.5126 5.2846 36.5586 5.57834C36.6044 5.87208 36.779 6.24008 36.9467 6.39627C37.117 6.55487 37.4483 6.68019 37.6977 6.68019C37.988 6.68019 38.259 6.55772 38.4732 6.32984C38.7668 6.01732 38.7944 5.88062 38.729 5.0654C38.6856 4.52528 38.5069 3.82656 38.2923 3.35771C38.0924 2.92115 37.6277 2.24192 37.2594 1.84832C36.7223 1.27407 36.5024 1.13481 36.147 1.14377C35.9035 1.14988 35.6228 1.18772 35.5234 1.22769ZM1.15022 2.29484C0.870841 2.62115 0.508536 3.24519 0.345093 3.68175C0.145519 4.21419 0.0398293 4.85644 0.0238975 5.63339C0.00440958 6.57664 0.04808 6.84463 0.25946 7.07863C0.402135 7.23667 0.674682 7.40495 0.865151 7.45274C1.06131 7.50196 1.38877 7.44805 1.61978 7.32856C1.84439 7.21249 2.06786 7.01391 2.11651 6.88717C2.16501 6.76057 2.20527 6.35815 2.2057 5.99285C2.20612 5.6277 2.27668 5.07564 2.36259 4.76611C2.44851 4.45658 2.67227 3.97763 2.85975 3.70181C3.04752 3.42542 3.20058 2.99142 3.20058 2.73538C3.20058 2.46013 3.0845 2.15444 2.91608 1.98602C2.7424 1.81233 2.44197 1.70152 2.14481 1.70152C1.74951 1.70152 1.56245 1.81304 1.15022 2.29484ZM37.018 8.56498C36.8893 8.66285 36.717 8.92302 36.6352 9.14322C36.5534 9.36342 36.4866 10.3621 36.4866 11.3624C36.4866 12.3627 36.5573 13.3841 36.6438 13.6321C36.7302 13.8802 36.918 14.1458 37.0611 14.2223C37.2042 14.2988 37.5065 14.3616 37.7327 14.3616C37.9786 14.3616 38.2682 14.2293 38.4533 14.0324C38.745 13.7217 38.7625 13.5701 38.7625 11.3545C38.7625 9.08333 38.7517 8.99556 38.4334 8.69642C38.2466 8.52102 37.9197 8.38717 37.6782 8.38717C37.4439 8.38717 37.1469 8.46725 37.018 8.56498ZM0.344809 9.46555C0.0086771 9.82345 0 9.8913 0 12.1805V14.5284L0.414368 14.8849C0.736132 15.1617 0.926887 15.2225 1.26785 15.1566C1.50939 15.1101 1.81907 14.937 1.95591 14.7721C2.1707 14.5134 2.20484 14.1519 2.20484 12.1345C2.20484 9.84208 2.19801 9.78988 1.85562 9.44763C1.64709 9.23895 1.34211 9.09841 1.09815 9.09841C0.842961 9.09841 0.560314 9.23625 0.344809 9.46555ZM32.2844 15.5518C31.8901 15.7354 31.3883 16.0984 31.1695 16.3586C30.855 16.7323 30.7891 16.9232 30.8555 17.268C30.9019 17.508 31.0748 17.8164 31.2396 17.9533C31.4045 18.0903 31.7157 18.2023 31.9312 18.2023C32.1467 18.2023 32.4841 18.0755 32.681 17.9206C32.878 17.7657 33.2179 17.571 33.4362 17.488C33.6546 17.405 34.0298 17.3802 34.2699 17.433C34.5382 17.4919 35.1108 17.9196 35.7534 18.5412C36.3292 19.098 37.2797 20.1486 37.8658 20.8758C38.4519 21.603 39.3186 22.8138 39.7917 23.5666C40.2647 24.3194 40.959 25.5807 41.3344 26.3696C41.7099 27.1585 42.189 28.3161 42.3992 28.942C42.69 29.8076 42.7975 30.4545 42.8485 31.6447C42.8958 32.7502 42.8497 33.5225 42.6916 34.2763C42.5678 34.8656 42.1819 35.9218 41.8293 36.636C41.3903 37.5255 40.894 38.25 40.2386 38.9577C39.7149 39.5234 38.9078 40.2434 38.445 40.5575C37.9824 40.8717 37.2085 41.3138 36.7253 41.54C36.2419 41.7661 35.3344 42.0877 34.7085 42.2544C33.8381 42.4864 33.1524 42.5581 31.7924 42.5592C30.375 42.5606 29.8267 42.5006 29.0897 42.2635C28.5811 42.1 26.2767 40.9019 23.9688 39.6009C21.6608 38.3 19.6336 37.1076 19.4639 36.9511C19.2942 36.7946 19.0153 36.3407 18.844 35.9426C18.6106 35.4002 18.5483 35.0293 18.5952 34.4632C18.6296 34.0477 18.6999 33.6655 18.7514 33.6141C18.8029 33.5626 19.4508 34.1066 20.1914 34.8229C21.2979 35.8933 21.6161 36.1255 21.9774 36.1255C22.2544 36.1255 22.546 35.9963 22.7661 35.7763C22.9904 35.5521 23.1153 35.2655 23.1153 34.9749C23.1153 34.5763 22.7514 34.1551 20.0569 31.4346C17.048 28.3965 16.9986 28.337 16.9986 27.7482C16.9986 27.4191 17.0898 26.9734 17.2013 26.7578C17.3128 26.5421 17.5719 26.2893 17.777 26.1959C17.9821 26.1024 18.4134 26.0259 18.7353 26.0259C19.3027 26.0259 19.3972 26.1017 21.835 28.5152C24.0413 30.6995 24.4055 31.0046 24.8057 31.0046C25.1005 31.0046 25.3855 30.881 25.611 30.6554C25.8388 30.4276 25.9602 30.1453 25.9602 29.8431C25.9602 29.4325 25.6813 29.1024 23.5065 26.9394C22.0238 25.4647 20.801 24.3714 20.4167 24.1767C20.053 23.9923 19.407 23.8243 18.9072 23.7842C18.2922 23.7349 17.8089 23.7888 17.2753 23.9659C16.7648 24.1354 16.3007 24.4343 15.8538 24.8811C15.407 25.328 15.1081 25.792 14.9386 26.3026C14.7615 26.8361 14.7076 27.3195 14.7569 27.9344C14.7956 28.4167 14.9632 29.075 15.131 29.4039C15.2982 29.7315 15.8161 30.407 16.2818 30.9049L17.1288 31.8103L16.8454 32.383C16.6897 32.698 16.4889 33.3488 16.3996 33.8293C16.2783 34.482 16.278 34.9224 16.3985 35.5702C16.4871 36.047 16.7033 36.7352 16.8788 37.0993C17.0542 37.4635 17.5211 38.0814 17.9163 38.4726C18.4525 39.0037 19.6433 39.7474 22.6174 41.4089C24.808 42.6326 26.8776 43.7727 27.2164 43.9424C27.5553 44.1123 28.3176 44.3752 28.9106 44.5269C29.687 44.7255 30.4726 44.8026 31.7179 44.8026C32.6689 44.8026 33.827 44.7353 34.2911 44.6531C34.7554 44.5709 35.5513 44.3708 36.0598 44.2084C36.5684 44.0461 37.5285 43.6349 38.1935 43.2946C38.8586 42.9544 39.8507 42.3201 40.3984 41.8851C40.946 41.4501 41.7625 40.6643 42.2128 40.139C42.6631 39.6137 43.3536 38.5605 43.7473 37.7986C44.1411 37.0367 44.5923 35.9165 44.75 35.3093C44.9076 34.702 45.0731 33.533 45.1176 32.7116C45.1769 31.6148 45.1342 30.8784 44.9569 29.9399C44.824 29.2369 44.5047 28.1165 44.2473 27.4501C43.99 26.7838 43.4765 25.6353 43.1061 24.8979C42.7358 24.1606 42.1234 23.0585 41.7452 22.4487C41.3671 21.839 40.656 20.8101 40.165 20.1624C39.6739 19.5147 38.5974 18.2878 37.7728 17.436C36.7448 16.3744 36.0496 15.7822 35.562 15.5526C35.043 15.3084 34.6008 15.2179 33.9261 15.2179C33.2544 15.2179 32.8053 15.3092 32.2844 15.5518ZM0.399147 17.123L0 17.4664V19.8381V22.2098L0.399147 22.5532C0.618636 22.742 0.957613 22.8965 1.15235 22.8965C1.34723 22.8965 1.66359 22.7393 1.85562 22.5472C2.1983 22.2047 2.20484 22.1542 2.20484 19.8381C2.20484 17.522 2.1983 17.4715 1.85562 17.129C1.66359 16.937 1.34723 16.7798 1.15235 16.7798C0.957613 16.7798 0.618636 16.9343 0.399147 17.123ZM26.31 17.5432C25.9157 17.7269 25.4195 18.0832 25.2076 18.3351C24.9956 18.5871 24.8222 18.9511 24.8222 19.1442C24.8222 19.3374 24.9794 19.6525 25.1715 19.8445C25.3821 20.0553 25.6847 20.1937 25.9346 20.1937C26.1624 20.1937 26.5097 20.067 26.7066 19.9121C26.9036 19.7572 27.2434 19.5624 27.4618 19.4795C27.6801 19.3964 28.0558 19.3708 28.2965 19.4225C28.6083 19.4895 29.4126 20.1865 31.0944 21.8467C33.1563 23.8821 33.5123 24.1767 33.9103 24.1767C34.2042 24.1767 34.4896 24.0529 34.7149 23.8275C34.915 23.6275 35.0641 23.3127 35.0641 23.0902C35.0641 22.7788 34.593 22.2258 32.6814 20.2935C30.9575 18.5509 30.1022 17.7915 29.5876 17.5471C29.0655 17.2991 28.6305 17.2094 27.9517 17.2094C27.28 17.2094 26.8309 17.3007 26.31 17.5432ZM22.0729 20.3906C21.6952 20.496 21.1198 20.7694 20.7941 20.9983C20.4685 21.2272 20.1441 21.5788 20.0734 21.7798C20.0027 21.9808 19.9871 22.3131 20.0386 22.5182C20.0914 22.7285 20.3144 22.9855 20.5498 23.1073C20.7796 23.226 21.0577 23.3232 21.168 23.3232C21.2783 23.3232 21.6032 23.164 21.89 22.9694C22.1767 22.7747 22.5698 22.5758 22.7634 22.5272C22.957 22.4787 23.29 22.4827 23.5035 22.5363C23.7369 22.5949 24.777 23.508 26.1134 24.8276C28.1469 26.8356 28.3786 27.0216 28.8444 27.0216C29.225 27.0216 29.4279 26.927 29.6483 26.6468C29.8105 26.4407 29.9432 26.1021 29.9432 25.8946C29.9432 25.5953 29.4486 25.0256 27.5574 23.1462C26.1564 21.7541 24.9625 20.6879 24.6652 20.5637C24.3867 20.4474 23.844 20.3178 23.4592 20.2757C23.0607 20.2321 22.4642 20.2817 22.0729 20.3906ZM47.7973 21.5302C47.6005 21.7269 47.4397 22.0471 47.4397 22.242C47.4397 22.4367 47.594 22.7757 47.7828 22.9952L48.1259 23.3943L51.8013 23.4654C54.8675 23.5248 55.5474 23.5757 55.9034 23.7728C56.1381 23.9027 56.4988 24.1908 56.7051 24.413C56.9114 24.635 57.1994 25.0408 57.3452 25.3147C57.598 25.7893 57.6125 26.4802 57.6548 40.1084C57.6876 50.6624 57.6555 54.6063 57.5323 55.1762C57.3952 55.8102 57.2328 56.0806 56.6239 56.6896C56.0149 57.2985 55.7445 57.4608 55.1105 57.5979C54.5407 57.7211 50.5967 57.7533 40.0428 57.7204L25.7469 57.676L25.1779 57.3691C24.8649 57.2001 24.4362 56.88 24.2252 56.6578C24.0143 56.4355 23.7422 56.0156 23.6207 55.7247C23.4413 55.2952 23.3998 54.5388 23.3998 51.7016C23.3998 48.9692 23.3548 48.0996 23.1932 47.7133C23.0723 47.4238 22.8338 47.1608 22.6175 47.0786C22.3496 46.9767 22.1148 46.9939 21.7622 47.1413C21.4629 47.2663 21.2436 47.474 21.1915 47.682C21.1449 47.8676 21.1265 49.7762 21.1508 51.9231C21.1948 55.8173 21.1959 55.8288 21.5762 56.6402C21.7858 57.0876 22.2649 57.7823 22.6407 58.1842C23.0166 58.5859 23.6888 59.0988 24.1348 59.3238C24.5806 59.5489 25.3817 59.8007 25.9151 59.8832C26.5612 59.9832 31.6311 60.019 41.1096 59.9906C54.1175 59.9516 55.396 59.9271 56.0548 59.7034C56.4511 59.5689 57.1286 59.2058 57.5604 58.8965C57.9923 58.5873 58.5832 57.9894 58.8734 57.5679C59.1637 57.1465 59.5097 56.4863 59.6422 56.1008C59.8614 55.4638 59.8872 54.1066 59.9255 41.1753C59.9535 31.6993 59.9174 26.6268 59.8175 25.9808C59.735 25.4474 59.4832 24.6462 59.2582 24.2004C59.0331 23.7545 58.5202 23.0822 58.1185 22.7064C57.7166 22.3306 57.0219 21.8515 56.5745 21.6418C55.765 21.2624 55.7429 21.2605 51.958 21.2165L48.1549 21.1725L47.7973 21.5302ZM0.414368 24.7913L0 25.1478V27.4957C0 29.7849 0.0086771 29.8528 0.344809 30.2107C0.560314 30.44 0.842961 30.5778 1.09815 30.5778C1.34211 30.5778 1.64709 30.4373 1.85562 30.2286C2.19801 29.8864 2.20484 29.8342 2.20484 27.5417C2.20484 25.5243 2.1707 25.1629 1.95591 24.9041C1.81907 24.7393 1.50939 24.5662 1.26785 24.5196C0.926887 24.4538 0.736132 24.5145 0.414368 24.7913ZM0.706261 32.278C0.547085 32.3424 0.348365 32.4824 0.264581 32.5889C0.180797 32.6955 0.0792318 32.9178 0.0389757 33.0831C-0.00128048 33.2483 0.0231861 33.7497 0.0933143 34.197C0.163585 34.6446 0.405264 35.3759 0.630584 35.8222C0.855905 36.2686 1.33286 36.9035 1.69047 37.2332C2.10271 37.613 2.47454 37.8325 2.70598 37.8325C2.90684 37.8325 3.22831 37.6753 3.42035 37.4833C3.63813 37.2656 3.76957 36.9712 3.76957 36.7013C3.76957 36.4107 3.61238 36.0932 3.29105 35.7347C3.02789 35.4411 2.71338 35.0066 2.59204 34.7692C2.4707 34.5318 2.3303 34.0837 2.27995 33.7734C2.22959 33.4632 2.15918 33.0666 2.12348 32.8919C2.08777 32.7174 1.87056 32.4773 1.64083 32.3585C1.4111 32.2397 1.17198 32.1467 1.10953 32.1515C1.04694 32.1565 0.865436 32.2134 0.706261 32.278ZM6.04553 36.6464C5.92818 36.6928 5.68806 36.8618 5.5121 37.0219C5.33159 37.1861 5.19205 37.48 5.19205 37.6958C5.19205 37.9063 5.32476 38.2473 5.48693 38.4534L5.78166 38.8282H8.10685C9.38565 38.8282 10.5356 38.7884 10.6622 38.7399C10.7889 38.6912 10.9875 38.4678 11.1036 38.2431C11.2231 38.0121 11.277 37.6847 11.2278 37.4885C11.18 37.298 11.012 37.0255 10.8545 36.8828C10.6076 36.6591 10.272 36.6191 8.41353 36.5926C7.22847 36.5759 6.16289 36.5999 6.04553 36.6464Z" fill="white"/>
</svg>
