<svg width="24" height="24" viewBox="0 0 24 24" fill="none" xmlns="http://www.w3.org/2000/svg">
<path d="M14.9998 3.75C13.4676 3.75125 11.9659 4.17867 10.6627 4.98446C9.35955 5.79025 8.30618 6.94265 7.62042 8.31281H7.61995C7.04565 9.457 6.74725 10.7198 6.74864 12C6.74864 12.1989 6.66962 12.3897 6.52897 12.5303C6.38831 12.671 6.19755 12.75 5.99864 12.75C5.79972 12.75 5.60896 12.671 5.46831 12.5303C5.32765 12.3897 5.24864 12.1989 5.24864 12C5.24746 10.7313 5.49527 9.4746 5.97801 8.30128C4.46641 8.49723 3.08607 9.26122 2.11737 10.4381C1.14867 11.6149 0.664239 13.1163 0.762483 14.6374C0.860728 16.1585 1.53428 17.5852 2.64632 18.6276C3.75836 19.6701 5.22551 20.2501 6.74976 20.25H14.9998C17.1878 20.25 19.2862 19.3808 20.8334 17.8336C22.3806 16.2865 23.2498 14.188 23.2498 12C23.2498 9.81196 22.3806 7.71354 20.8334 6.16637C19.2862 4.61919 17.1878 3.75 14.9998 3.75ZM18.53 11.4053L14.03 15.9053C13.9604 15.975 13.8777 16.0302 13.7867 16.0679C13.6957 16.1056 13.5982 16.125 13.4997 16.125C13.4012 16.125 13.3036 16.1056 13.2126 16.0679C13.1217 16.0302 13.039 15.975 12.9693 15.9053L10.7193 13.6553C10.5787 13.5147 10.4997 13.3239 10.4997 13.125C10.4997 12.9261 10.5787 12.7353 10.7193 12.5947C10.86 12.454 11.0508 12.375 11.2497 12.375C11.4486 12.375 11.6394 12.454 11.78 12.5947L13.4997 14.3144L17.4693 10.3447C17.61 10.204 17.8008 10.125 17.9997 10.125C18.1986 10.125 18.3894 10.204 18.53 10.3447C18.6707 10.4853 18.7497 10.6761 18.7497 10.875C18.7497 11.0739 18.6707 11.2647 18.53 11.4053Z" fill="#00C371"/>
</svg>
